<?xml version="1.0" encoding="utf-8"?>
<!-- Generator: Adobe Illustrator 24.1.2, SVG Export Plug-In . SVG Version: 6.00 Build 0)  -->
<svg version="1.1" id="Шар_1" xmlns="http://www.w3.org/2000/svg" xmlns:xlink="http://www.w3.org/1999/xlink" x="0px" y="0px"
	 viewBox="0 0 448 512" style="enable-background:new 0 0 448 512;" xml:space="preserve">
<style type="text/css">
	.st0{fill:#5D8AA8;}
</style>
<path class="st0" d="M180.6,480c-11.4,0-20.6-9.2-20.6-20.6V288H43c-7.1,0-10.7-8.6-5.7-13.7L209.4,102c8-8,21.1-8,29.1,0
	l172.1,172.3c5,5,1.5,13.7-5.7,13.7H288v171.4c0,11.4-9.2,20.6-20.6,20.6H180.6 M180.6,512h86.9c29,0,52.6-23.6,52.6-52.6V320h85
	c35.5,0,53.5-43,28.3-68.3L261.2,79.4c-20.6-20.6-53.8-20.6-74.4,0L14.7,251.7C-10.4,276.9,7.4,320,43,320h85v139.4
	C128,488.4,151.6,512,180.6,512z"/>
</svg>
