<?xml version="1.0" encoding="utf-8"?>
<!-- Generator: Adobe Illustrator 24.1.2, SVG Export Plug-In . SVG Version: 6.00 Build 0)  -->
<svg version="1.1" id="Шар_1" xmlns="http://www.w3.org/2000/svg" xmlns:xlink="http://www.w3.org/1999/xlink" x="0px" y="0px"
	 viewBox="0 0 448 512" style="enable-background:new 0 0 448 512;" xml:space="preserve">
<style type="text/css">
	.st0{fill:#5D8AA8;}
</style>
<path class="st0" d="M395.4,159.9H256V75c0-35.5-43-53.5-68.3-28.3L15.4,218.8c-20.6,20.6-20.6,53.8,0,74.4l172.3,172.1
	c25.1,25.1,68.3,7.4,68.3-28.3v-85h139.4c29,0,52.6-23.6,52.6-52.6v-86.9C448,183.5,424.4,159.9,395.4,159.9L395.4,159.9z
	 M416,299.4c0,11.4-9.2,20.6-20.6,20.6H224v117c0,7.1-8.6,10.7-13.7,5.7L38,270.6c-8-8-8-21.1,0-29.1L210.3,69.4
	c5-5,13.7-1.5,13.7,5.7v117h171.4c11.4,0,20.6,9.2,20.6,20.6V299.4z"/>
</svg>
