<?xml version="1.0" encoding="utf-8"?>
<!-- Generator: Adobe Illustrator 24.1.2, SVG Export Plug-In . SVG Version: 6.00 Build 0)  -->
<svg version="1.1" id="Шар_1" xmlns="http://www.w3.org/2000/svg" xmlns:xlink="http://www.w3.org/1999/xlink" x="0px" y="0px"
	 viewBox="0 0 448 512" style="enable-background:new 0 0 448 512;" xml:space="preserve">
<style type="text/css">
	.st0{fill:#5D8AA8;}
</style>
<path class="st0" d="M32,212.6c0-11.4,9.2-20.6,20.6-20.6c0,0,0,0,0,0H224V75c0-4.4,3.6-8,8-8c2.1,0,4.2,0.8,5.7,2.3L410,241.4
	c8,8,8.1,21,0,29.1c0,0,0,0,0,0L237.7,442.6c-3.1,3.1-8.2,3.1-11.3,0c-1.5-1.5-2.3-3.5-2.3-5.6V320H52.6c-11.4,0-20.6-9.2-20.6-20.6
	c0,0,0,0,0,0V212.6 M0,212.6v86.9c0,29,23.5,52.5,52.6,52.6H192v85c0,35.5,43,53.5,68.3,28.3l172.3-172.1
	c20.5-20.5,20.6-53.8,0.1-74.3c0,0-0.1-0.1-0.1-0.1L260.3,46.7C235.1,21.6,192,39.4,192,75v85H52.6C23.6,160,0,183.6,0,212.6z"/>
</svg>
