<?xml version="1.0" encoding="utf-8"?>
<!-- Generator: Adobe Illustrator 24.1.2, SVG Export Plug-In . SVG Version: 6.00 Build 0)  -->
<svg version="1.1" id="Шар_1" xmlns="http://www.w3.org/2000/svg" xmlns:xlink="http://www.w3.org/1999/xlink" x="0px" y="0px"
	 viewBox="0 0 640 512" style="enable-background:new 0 0 640 512;" xml:space="preserve">
<style type="text/css">
	.st0{fill:#EB5B25;}
</style>
<path class="st0" d="M64,352V179.5l-62.1-48c-1.2,4.1-1.8,8.3-1.9,12.5v224c0,26.5,21.5,48,48,48h322l-82.8-64H64z M608,368v-16h8
	c13.3,0,24-10.7,24-24V184c0-13.3-10.7-24-24-24h-8v-16c0-26.5-21.5-48-48-48H165.3L45.5,3.4c-7-5.4-17-4.2-22.5,2.8c0,0,0,0,0,0
	L3.4,31.5c-5.4,7-4.2,17,2.8,22.5l588.3,454.7c7,5.4,17,4.2,22.5-2.8c0,0,0,0,0,0l19.6-25.3c5.4-7,4.2-17-2.8-22.5l-58.1-44.9
	C595,406.5,608,388.4,608,368z M576,288h-32v64h-47.5L248.1,160H544v64h32V288z"/>
</svg>
