<?xml version="1.0" encoding="utf-8"?>
<!-- Generator: Adobe Illustrator 24.1.2, SVG Export Plug-In . SVG Version: 6.00 Build 0)  -->
<svg version="1.1" id="Шар_1" xmlns="http://www.w3.org/2000/svg" xmlns:xlink="http://www.w3.org/1999/xlink" x="0px" y="0px"
	 viewBox="0 0 640 512" style="enable-background:new 0 0 640 512;" xml:space="preserve">
<style type="text/css">
	.st0{fill:#E73439;}
</style>
<path class="st0" d="M64,352h178.8l-14.2,64H48c-26.5,0-48-21.5-48-48V144c0-26.5,21.5-48,48-48h115.9l-7.7,64H64V352z M428.8,192
	h-92.3l27.7-133.6c3.2-13.3-5.9-26.4-18.6-26.4H236.8c-9.6,0-17.8,7.8-19,18.2L192.2,264c-1.5,12.6,7.4,23.8,19,23.8h95l-36.8,166.4
	c-2.9,13.3,6.4,25.8,18.7,25.8c6.7,0,13.1-3.8,16.6-10.5l140.8-246C452.8,209.6,443.6,192,428.8,192z M616,160h-8v-16
	c0-26.5-21.5-48-48-48H405.4l-10,48h33.3c16.1,0,31.2,5.8,43.1,16H544v64h32v64h-32v64H427.2l-36.6,64H560c26.5,0,48-21.5,48-48v-16
	h8c13.3,0,24-10.7,24-24V184C640,170.7,629.3,160,616,160z"/>
</svg>
